<svg xmlns="http://www.w3.org/2000/svg" xmlns:xlink="http://www.w3.org/1999/xlink" width="500" zoomAndPan="magnify" viewBox="0 0 375 374.999991" height="500" preserveAspectRatio="xMidYMid meet" version="1.0"><defs><g/><clipPath id="9143cfdab8"><path d="M 236.710938 132.148438 L 303.460938 132.148438 L 303.460938 226.648438 L 236.710938 226.648438 Z M 236.710938 132.148438 " clip-rule="nonzero"/></clipPath></defs><g clip-path="url(#9143cfdab8)"><path fill="#7c1e96" d="M 269.898438 132.152344 C 251.574219 132.152344 236.710938 147.015625 236.710938 165.339844 C 236.710938 190.230469 269.898438 226.972656 269.898438 226.972656 C 269.898438 226.972656 303.085938 190.230469 303.085938 165.339844 C 303.085938 147.015625 288.222656 132.152344 269.898438 132.152344 Z M 269.898438 177.191406 C 263.355469 177.191406 258.042969 171.882812 258.042969 165.339844 C 258.042969 158.796875 263.355469 153.488281 269.898438 153.488281 C 276.441406 153.488281 281.75 158.796875 281.75 165.339844 C 281.75 171.882812 276.441406 177.191406 269.898438 177.191406 Z M 269.898438 177.191406 " fill-opacity="1" fill-rule="nonzero"/></g><g fill="#d9d9d9" fill-opacity="1"><g transform="translate(5.28737, 218.567095)"><g><path d="M 45.03125 -12.140625 L 45.03125 -28.109375 L 32.203125 -2.390625 C 32.117188 -2.140625 31.929688 -2.015625 31.640625 -2.015625 L 23.890625 -2.015625 C 23.554688 -2.015625 23.347656 -2.140625 23.265625 -2.390625 L 9.625 -28.796875 L 9.625 -0.5625 C 9.625 -0.1875 9.394531 0 8.9375 0 L 0.625 0 C 0.207031 0 0 -0.1875 0 -0.5625 L 0 -49.75 C 0 -50.125 0.207031 -50.3125 0.625 -50.3125 L 9.0625 -50.3125 C 9.394531 -50.3125 9.601562 -50.1875 9.6875 -49.9375 L 27.734375 -13.078125 L 44.90625 -49.9375 C 45.070312 -50.1875 45.300781 -50.3125 45.59375 -50.3125 L 53.890625 -50.3125 C 54.359375 -50.3125 54.59375 -50.125 54.59375 -49.75 L 54.59375 -12.140625 Z M 45.03125 -12.140625 "/></g></g></g><g fill="#d9d9d9" fill-opacity="1"><g transform="translate(69.565706, 218.567095)"><g><path d="M 23.890625 -9.375 L 23.890625 0 L 0.6875 0 C 0.226562 0 0 -0.1875 0 -0.5625 L 0 -49.75 C 0 -50.125 0.226562 -50.3125 0.6875 -50.3125 L 23.890625 -50.3125 L 23.890625 -41.1875 L 9.625 -41.1875 L 9.625 -29.8125 L 29.375 -29.8125 C 29.832031 -29.8125 30.0625 -29.625 30.0625 -29.25 L 30.0625 -21.25 C 30.0625 -20.875 29.832031 -20.6875 29.375 -20.6875 L 9.625 -20.6875 L 9.625 -9.375 Z M 23.890625 -9.375 "/></g></g></g><g fill="#d9d9d9" fill-opacity="1"><g transform="translate(108.057266, 218.567095)"><g><path d="M 23.890625 -9.375 L 23.890625 0 L 0.6875 0 C 0.226562 0 0 -0.1875 0 -0.5625 L 0 -49.75 C 0 -50.125 0.226562 -50.3125 0.6875 -50.3125 L 23.890625 -50.3125 L 23.890625 -41.1875 L 9.625 -41.1875 L 9.625 -29.8125 L 29.375 -29.8125 C 29.832031 -29.8125 30.0625 -29.625 30.0625 -29.25 L 30.0625 -21.25 C 30.0625 -20.875 29.832031 -20.6875 29.375 -20.6875 L 9.625 -20.6875 L 9.625 -9.375 Z M 23.890625 -9.375 "/></g></g></g><g fill="#d9d9d9" fill-opacity="1"><g transform="translate(146.548825, 218.567095)"><g><path d="M 10.375 -32.078125 L 19.9375 -32.078125 L 19.9375 -0.5625 C 19.9375 -0.1875 19.6875 0 19.1875 0 L 11.0625 0 C 10.601562 0 10.375 -0.1875 10.375 -0.5625 Z M 0.6875 -41.703125 C 0.226562 -41.703125 0 -41.890625 0 -42.265625 L 0 -49.75 C 0 -50.125 0.226562 -50.3125 0.6875 -50.3125 L 29.5625 -50.3125 C 30.019531 -50.3125 30.25 -50.125 30.25 -49.75 L 30.25 -42.265625 C 30.25 -41.890625 30.019531 -41.703125 29.5625 -41.703125 Z M 0.6875 -41.703125 "/></g></g></g><g fill="#d9d9d9" fill-opacity="1"><g transform="translate(185.229063, 218.567095)"><g><path d="M 41.640625 -50.3125 C 42.097656 -50.3125 42.328125 -50.125 42.328125 -49.75 L 42.328125 -0.5625 C 42.328125 -0.1875 42.097656 0 41.640625 0 L 33.328125 0 C 33.285156 0 33.191406 -0.0195312 33.046875 -0.0625 C 32.898438 -0.101562 32.804688 -0.144531 32.765625 -0.1875 L 9.625 -33.328125 L 9.625 -12.078125 L 0 -12.078125 L 0 -49.75 C 0 -50.125 0.207031 -50.3125 0.625 -50.3125 L 9 -50.3125 C 9.082031 -50.3125 9.1875 -50.300781 9.3125 -50.28125 C 9.4375 -50.257812 9.519531 -50.207031 9.5625 -50.125 L 32.765625 -16.984375 L 32.765625 -49.75 C 32.765625 -50.125 33.015625 -50.3125 33.515625 -50.3125 Z M 41.640625 -50.3125 "/></g></g></g><g fill="#d9d9d9" fill-opacity="1"><g transform="translate(236.61548, 218.567095)"><g/></g></g><g fill="#d9d9d9" fill-opacity="1"><g transform="translate(259.257606, 218.567095)"><g/></g></g><g fill="#d9d9d9" fill-opacity="1"><g transform="translate(281.899732, 218.567095)"><g/></g></g><g fill="#d9d9d9" fill-opacity="1"><g transform="translate(304.549073, 218.567095)"><g><path d="M 52.265625 -41.0625 L 62.078125 -41.0625 L 46.40625 -0.375 C 46.320312 -0.125 46.125 0 45.8125 0 C 45.5 0 45.300781 -0.125 45.21875 -0.375 L 31 -37.671875 L 16.796875 -0.375 C 16.710938 -0.125 16.507812 0 16.1875 0 C 15.875 0 15.675781 -0.125 15.59375 -0.375 L 0 -41.0625 L 9.8125 -41.0625 L 16.15625 -23.765625 L 26.15625 -49.9375 C 26.238281 -50.1875 26.429688 -50.3125 26.734375 -50.3125 L 35.28125 -50.3125 C 35.570312 -50.3125 35.78125 -50.1875 35.90625 -49.9375 L 45.84375 -23.765625 Z M 52.265625 -41.0625 "/></g></g></g></svg>