<svg xmlns="http://www.w3.org/2000/svg" xmlns:xlink="http://www.w3.org/1999/xlink" width="500" zoomAndPan="magnify" viewBox="0 0 375 374.999991" height="500" preserveAspectRatio="xMidYMid meet" version="1.0"><defs><g/><clipPath id="abc7e7d6ad"><path d="M 232.347656 74.121094 L 299 74.121094 L 299 168.621094 L 232.347656 168.621094 Z M 232.347656 74.121094 " clip-rule="nonzero"/></clipPath></defs><g clip-path="url(#abc7e7d6ad)"><path fill="#7c1e96" d="M 265.535156 74.125 C 247.210938 74.125 232.347656 88.988281 232.347656 107.3125 C 232.347656 132.203125 265.535156 168.945312 265.535156 168.945312 C 265.535156 168.945312 298.722656 132.203125 298.722656 107.3125 C 298.722656 88.988281 283.859375 74.125 265.535156 74.125 Z M 265.535156 119.164062 C 258.996094 119.164062 253.683594 113.851562 253.683594 107.3125 C 253.683594 100.769531 258.996094 95.457031 265.535156 95.457031 C 272.078125 95.457031 277.390625 100.769531 277.390625 107.3125 C 277.390625 113.851562 272.078125 119.164062 265.535156 119.164062 Z M 265.535156 119.164062 " fill-opacity="1" fill-rule="nonzero"/></g><g fill="#ffe98f" fill-opacity="1"><g transform="translate(10.385026, 218.56711)"><g><path d="M 45.03125 -12.140625 L 45.03125 -28.109375 L 32.203125 -2.390625 C 32.117188 -2.140625 31.929688 -2.015625 31.640625 -2.015625 L 23.890625 -2.015625 C 23.554688 -2.015625 23.347656 -2.140625 23.265625 -2.390625 L 9.625 -28.796875 L 9.625 -0.5625 C 9.625 -0.1875 9.394531 0 8.9375 0 L 0.625 0 C 0.207031 0 0 -0.1875 0 -0.5625 L 0 -49.75 C 0 -50.125 0.207031 -50.3125 0.625 -50.3125 L 9.0625 -50.3125 C 9.394531 -50.3125 9.601562 -50.1875 9.6875 -49.9375 L 27.734375 -13.078125 L 44.90625 -49.9375 C 45.070312 -50.1875 45.300781 -50.3125 45.59375 -50.3125 L 53.890625 -50.3125 C 54.359375 -50.3125 54.59375 -50.125 54.59375 -49.75 L 54.59375 -12.140625 Z M 45.03125 -12.140625 "/></g></g></g><g fill="#ffe98f" fill-opacity="1"><g transform="translate(74.663362, 218.56711)"><g><path d="M 23.890625 -9.375 L 23.890625 0 L 0.6875 0 C 0.226562 0 0 -0.1875 0 -0.5625 L 0 -49.75 C 0 -50.125 0.226562 -50.3125 0.6875 -50.3125 L 23.890625 -50.3125 L 23.890625 -41.1875 L 9.625 -41.1875 L 9.625 -29.8125 L 29.375 -29.8125 C 29.832031 -29.8125 30.0625 -29.625 30.0625 -29.25 L 30.0625 -21.25 C 30.0625 -20.875 29.832031 -20.6875 29.375 -20.6875 L 9.625 -20.6875 L 9.625 -9.375 Z M 23.890625 -9.375 "/></g></g></g><g fill="#ffe98f" fill-opacity="1"><g transform="translate(113.154922, 218.56711)"><g><path d="M 23.890625 -9.375 L 23.890625 0 L 0.6875 0 C 0.226562 0 0 -0.1875 0 -0.5625 L 0 -49.75 C 0 -50.125 0.226562 -50.3125 0.6875 -50.3125 L 23.890625 -50.3125 L 23.890625 -41.1875 L 9.625 -41.1875 L 9.625 -29.8125 L 29.375 -29.8125 C 29.832031 -29.8125 30.0625 -29.625 30.0625 -29.25 L 30.0625 -21.25 C 30.0625 -20.875 29.832031 -20.6875 29.375 -20.6875 L 9.625 -20.6875 L 9.625 -9.375 Z M 23.890625 -9.375 "/></g></g></g><g fill="#ffe98f" fill-opacity="1"><g transform="translate(151.646481, 218.56711)"><g><path d="M 10.375 -32.078125 L 19.9375 -32.078125 L 19.9375 -0.5625 C 19.9375 -0.1875 19.6875 0 19.1875 0 L 11.0625 0 C 10.601562 0 10.375 -0.1875 10.375 -0.5625 Z M 0.6875 -41.703125 C 0.226562 -41.703125 0 -41.890625 0 -42.265625 L 0 -49.75 C 0 -50.125 0.226562 -50.3125 0.6875 -50.3125 L 29.5625 -50.3125 C 30.019531 -50.3125 30.25 -50.125 30.25 -49.75 L 30.25 -42.265625 C 30.25 -41.890625 30.019531 -41.703125 29.5625 -41.703125 Z M 0.6875 -41.703125 "/></g></g></g><g fill="#ffe98f" fill-opacity="1"><g transform="translate(190.326719, 218.56711)"><g><path d="M 41.640625 -50.3125 C 42.097656 -50.3125 42.328125 -50.125 42.328125 -49.75 L 42.328125 -0.5625 C 42.328125 -0.1875 42.097656 0 41.640625 0 L 33.328125 0 C 33.285156 0 33.191406 -0.0195312 33.046875 -0.0625 C 32.898438 -0.101562 32.804688 -0.144531 32.765625 -0.1875 L 9.625 -33.328125 L 9.625 -12.078125 L 0 -12.078125 L 0 -49.75 C 0 -50.125 0.207031 -50.3125 0.625 -50.3125 L 9 -50.3125 C 9.082031 -50.3125 9.1875 -50.300781 9.3125 -50.28125 C 9.4375 -50.257812 9.519531 -50.207031 9.5625 -50.125 L 32.765625 -16.984375 L 32.765625 -49.75 C 32.765625 -50.125 33.015625 -50.3125 33.515625 -50.3125 Z M 41.640625 -50.3125 "/></g></g></g><g fill="#7c1e96" fill-opacity="1"><g transform="translate(241.71314, 218.56711)"><g><path d="M 28.921875 -25.03125 C 28.921875 -23.726562 28.46875 -22.613281 27.5625 -21.6875 C 26.664062 -20.769531 25.550781 -20.3125 24.21875 -20.3125 C 22.914062 -20.3125 21.800781 -20.769531 20.875 -21.6875 C 19.957031 -22.613281 19.5 -23.726562 19.5 -25.03125 C 19.5 -26.375 19.957031 -27.503906 20.875 -28.421875 C 21.800781 -29.347656 22.914062 -29.8125 24.21875 -29.8125 C 25.550781 -29.8125 26.664062 -29.347656 27.5625 -28.421875 C 28.46875 -27.503906 28.921875 -26.375 28.921875 -25.03125 Z M 48.421875 -25.21875 C 48.421875 -22.070312 47.914062 -19 46.90625 -16 C 45.90625 -13.007812 44.398438 -10.304688 42.390625 -7.890625 C 40.378906 -5.484375 37.863281 -3.566406 34.84375 -2.140625 C 31.820312 -0.710938 28.300781 0 24.28125 0 C 20.207031 0 16.648438 -0.710938 13.609375 -2.140625 C 10.578125 -3.566406 8.050781 -5.484375 6.03125 -7.890625 C 4.019531 -10.304688 2.507812 -13.007812 1.5 -16 C 0.5 -19 0 -22.070312 0 -25.21875 C 0 -28.363281 0.5 -31.421875 1.5 -34.390625 C 2.507812 -37.367188 4.019531 -40.050781 6.03125 -42.4375 C 8.050781 -44.832031 10.578125 -46.742188 13.609375 -48.171875 C 16.648438 -49.597656 20.207031 -50.3125 24.28125 -50.3125 C 28.300781 -50.3125 31.820312 -49.597656 34.84375 -48.171875 C 37.863281 -46.742188 40.378906 -44.832031 42.390625 -42.4375 C 44.398438 -40.050781 45.90625 -37.367188 46.90625 -34.390625 C 47.914062 -31.421875 48.421875 -28.363281 48.421875 -25.21875 Z M 38.984375 -25.03125 C 38.984375 -27.082031 38.671875 -29.082031 38.046875 -31.03125 C 37.421875 -32.976562 36.5 -34.738281 35.28125 -36.3125 C 34.0625 -37.882812 32.53125 -39.128906 30.6875 -40.046875 C 28.84375 -40.972656 26.707031 -41.4375 24.28125 -41.4375 C 21.800781 -41.4375 19.640625 -40.972656 17.796875 -40.046875 C 15.953125 -39.128906 14.410156 -37.882812 13.171875 -36.3125 C 11.929688 -34.738281 11.007812 -32.976562 10.40625 -31.03125 C 9.800781 -29.082031 9.5 -27.082031 9.5 -25.03125 C 9.5 -23.019531 9.800781 -21.046875 10.40625 -19.109375 C 11.007812 -17.179688 11.929688 -15.441406 13.171875 -13.890625 C 14.410156 -12.347656 15.953125 -11.113281 17.796875 -10.1875 C 19.640625 -9.257812 21.800781 -8.796875 24.28125 -8.796875 C 26.707031 -8.796875 28.84375 -9.257812 30.6875 -10.1875 C 32.53125 -11.113281 34.0625 -12.347656 35.28125 -13.890625 C 36.5 -15.441406 37.421875 -17.179688 38.046875 -19.109375 C 38.671875 -21.046875 38.984375 -23.019531 38.984375 -25.03125 Z M 38.984375 -25.03125 "/></g></g></g><g fill="#ffe98f" fill-opacity="1"><g transform="translate(299.451414, 218.56711)"><g><path d="M 52.265625 -41.0625 L 62.078125 -41.0625 L 46.40625 -0.375 C 46.320312 -0.125 46.125 0 45.8125 0 C 45.5 0 45.300781 -0.125 45.21875 -0.375 L 31 -37.671875 L 16.796875 -0.375 C 16.710938 -0.125 16.507812 0 16.1875 0 C 15.875 0 15.675781 -0.125 15.59375 -0.375 L 0 -41.0625 L 9.8125 -41.0625 L 16.15625 -23.765625 L 26.15625 -49.9375 C 26.238281 -50.1875 26.429688 -50.3125 26.734375 -50.3125 L 35.28125 -50.3125 C 35.570312 -50.3125 35.78125 -50.1875 35.90625 -49.9375 L 45.84375 -23.765625 Z M 52.265625 -41.0625 "/></g></g></g></svg>